<svg xmlns="http://www.w3.org/2000/svg" xmlns:xlink="http://www.w3.org/1999/xlink" width="503" zoomAndPan="magnify" viewBox="0 0 377.25 385.500002" height="514" preserveAspectRatio="xMidYMid meet" version="1.0"><defs><clipPath id="62ba71e3e2"><path d="M 29.636719 76 L 122 76 L 122 184 L 29.636719 184 Z M 29.636719 76 " clip-rule="nonzero"/></clipPath><clipPath id="21a5ab8317"><path d="M 147 10.007812 L 240 10.007812 L 240 117 L 147 117 Z M 147 10.007812 " clip-rule="nonzero"/></clipPath><clipPath id="b19192a004"><path d="M 147 269 L 240 269 L 240 375.28125 L 147 375.28125 Z M 147 269 " clip-rule="nonzero"/></clipPath><clipPath id="b2c28d7a2e"><path d="M 264 76 L 356.734375 76 L 356.734375 184 L 264 184 Z M 264 76 " clip-rule="nonzero"/></clipPath><clipPath id="c5d9b4b7e8"><path d="M 264 204 L 356.734375 204 L 356.734375 311 L 264 311 Z M 264 204 " clip-rule="nonzero"/></clipPath><clipPath id="1d3b46eaa4"><path d="M 29.636719 204 L 122 204 L 122 311 L 29.636719 311 Z M 29.636719 204 " clip-rule="nonzero"/></clipPath></defs><g clip-path="url(#62ba71e3e2)"><path fill="#4a555f" d="M 34.378906 154.136719 L 75.921875 178.058594 L 117.394531 154.019531 L 117.332031 106.039062 L 75.789062 82.117188 L 34.3125 106.164062 Z M 75.925781 183.199219 L 29.933594 156.710938 L 29.859375 103.601562 L 75.78125 76.976562 L 121.773438 103.460938 L 121.847656 156.574219 L 75.925781 183.199219 " fill-opacity="1" fill-rule="nonzero"/></g><path fill="#ffd452" d="M 112.144531 109.074219 L 112.144531 109.042969 L 75.789062 88.117188 L 39.511719 109.160156 L 39.554688 151.128906 L 75.894531 172.066406 L 75.785156 130.21875 L 112.144531 109.074219 " fill-opacity="1" fill-rule="nonzero"/><path fill="#f58e6f" d="M 112.144531 109.074219 L 75.785156 130.21875 L 75.894531 172.066406 L 112.207031 151.023438 L 112.144531 109.074219 " fill-opacity="1" fill-rule="nonzero"/><path fill="#4a555f" d="M 75.785156 132.789062 L 30.972656 106.808594 L 33.203125 102.960938 L 75.785156 127.648438 L 118.371094 102.960938 L 120.601562 106.808594 L 75.785156 132.789062 " fill-opacity="1" fill-rule="nonzero"/><path fill="#4a555f" d="M 73.699219 180.636719 L 73.5625 130.222656 L 78.007812 130.214844 L 78.144531 180.625 L 73.699219 180.636719 " fill-opacity="1" fill-rule="nonzero"/><path fill="#4a555f" d="M 195.765625 126 L 191.316406 126 L 191.316406 121.542969 L 195.765625 121.542969 Z M 195.765625 134.902344 L 191.316406 134.902344 L 191.316406 130.453125 L 195.765625 130.453125 L 195.765625 134.902344 " fill-opacity="1" fill-rule="nonzero"/><path fill="#4a555f" d="M 78.144531 192.394531 L 73.699219 192.394531 L 73.699219 187.945312 L 78.144531 187.945312 Z M 78.144531 201.300781 L 73.699219 201.300781 L 73.699219 196.847656 L 78.144531 196.847656 L 78.144531 201.300781 " fill-opacity="1" fill-rule="nonzero"/><path fill="#4a555f" d="M 312.8125 192.394531 L 308.363281 192.394531 L 308.363281 187.945312 L 312.8125 187.945312 Z M 312.8125 201.300781 L 308.363281 201.300781 L 308.363281 196.851562 L 312.8125 196.851562 L 312.8125 201.300781 " fill-opacity="1" fill-rule="nonzero"/><path fill="#4a555f" d="M 141.128906 95.867188 L 138.960938 91.984375 L 142.847656 89.8125 L 145.015625 93.695312 Z M 133.367188 100.210938 L 131.199219 96.328125 L 135.078125 94.15625 L 137.25 98.042969 Z M 125.605469 104.5625 L 123.433594 100.679688 L 127.316406 98.5 L 129.484375 102.390625 L 125.605469 104.5625 " fill-opacity="1" fill-rule="nonzero"/><path fill="#4a555f" d="M 128.601562 288.925781 L 124.71875 286.753906 L 126.894531 282.867188 L 130.773438 285.039062 Z M 136.367188 293.273438 L 132.484375 291.101562 L 134.65625 287.210938 L 138.535156 289.390625 Z M 144.132812 297.617188 L 140.246094 295.445312 L 142.421875 291.554688 L 146.304688 293.734375 L 144.132812 297.617188 " fill-opacity="1" fill-rule="nonzero"/><path fill="#4a555f" d="M 258.535156 288.925781 L 256.367188 285.039062 L 260.25 282.867188 L 262.421875 286.753906 Z M 250.769531 293.273438 L 248.601562 289.390625 L 252.480469 287.210938 L 254.65625 291.101562 Z M 243.011719 297.617188 L 240.835938 293.734375 L 244.722656 291.554688 L 246.890625 295.445312 L 243.011719 297.617188 " fill-opacity="1" fill-rule="nonzero"/><path fill="#4a555f" d="M 246.078125 95.867188 L 242.199219 93.695312 L 244.367188 89.8125 L 248.253906 91.984375 Z M 253.84375 100.210938 L 249.964844 98.042969 L 252.132812 94.15625 L 256.015625 96.328125 Z M 261.609375 104.5625 L 257.726562 102.390625 L 259.898438 98.5 L 263.78125 100.679688 L 261.609375 104.5625 " fill-opacity="1" fill-rule="nonzero"/><path fill="#4a555f" d="M 195.765625 256.03125 L 191.320312 256.03125 L 191.320312 251.582031 L 195.765625 251.582031 Z M 195.765625 264.933594 L 191.320312 264.933594 L 191.320312 260.480469 L 195.765625 260.480469 L 195.765625 264.933594 " fill-opacity="1" fill-rule="nonzero"/><path fill="#ffd452" d="M 157.316406 84.164062 L 157.257812 42.183594 L 193.554688 21.140625 L 229.902344 42.078125 L 229.953125 84.050781 L 193.664062 105.097656 L 157.316406 84.164062 " fill-opacity="1" fill-rule="nonzero"/><path fill="#f58e6f" d="M 230.03125 42.105469 L 193.675781 63.25 L 193.664062 105.097656 L 229.953125 84.050781 L 230.03125 42.105469 " fill-opacity="1" fill-rule="nonzero"/><g clip-path="url(#21a5ab8317)"><path fill="#4a555f" d="M 152.132812 87.167969 L 193.671875 111.089844 L 235.148438 87.046875 L 235.085938 39.070312 L 193.542969 15.148438 L 152.066406 39.195312 Z M 193.683594 116.234375 L 147.6875 89.746094 L 147.617188 36.632812 L 193.535156 10.003906 L 239.527344 36.496094 L 239.601562 89.605469 L 193.683594 116.234375 " fill-opacity="1" fill-rule="nonzero"/></g><path fill="#4a555f" d="M 193.542969 65.820312 L 148.726562 39.835938 L 150.957031 35.984375 L 193.542969 60.671875 L 236.125 35.984375 L 238.351562 39.835938 L 193.542969 65.820312 " fill-opacity="1" fill-rule="nonzero"/><path fill="#4a555f" d="M 195.902344 113.660156 L 191.453125 113.660156 L 191.453125 63.25 L 195.902344 63.25 L 195.902344 113.660156 " fill-opacity="1" fill-rule="nonzero"/><path fill="#4a555f" d="M 164.710938 82.671875 L 162.542969 78.785156 L 166.417969 76.609375 L 168.59375 80.5 Z M 156.945312 87.015625 L 154.773438 83.132812 L 158.65625 80.960938 L 160.828125 84.84375 L 156.945312 87.015625 " fill-opacity="1" fill-rule="nonzero"/><path fill="#4a555f" d="M 222.503906 82.671875 L 218.625 80.5 L 220.792969 76.609375 L 224.675781 78.785156 Z M 230.269531 87.015625 L 226.386719 84.84375 L 228.558594 80.960938 L 232.441406 83.132812 L 230.269531 87.015625 " fill-opacity="1" fill-rule="nonzero"/><path fill="#4a555f" d="M 152.132812 216.695312 L 193.671875 240.613281 L 235.148438 216.570312 L 235.085938 168.59375 L 193.542969 144.667969 L 152.066406 168.714844 Z M 193.683594 245.753906 L 147.6875 219.269531 L 147.617188 166.152344 L 193.535156 139.53125 L 239.527344 166.015625 L 239.601562 219.132812 L 193.683594 245.753906 " fill-opacity="1" fill-rule="nonzero"/><path fill="#71cce0" d="M 157.316406 213.6875 L 157.257812 171.707031 L 193.554688 150.664062 L 229.902344 171.601562 L 229.953125 213.578125 L 193.664062 234.617188 L 157.316406 213.6875 " fill-opacity="1" fill-rule="nonzero"/><path fill="#f58e6f" d="M 230.03125 171.625 L 193.675781 192.769531 L 193.664062 234.617188 L 229.957031 213.578125 L 230.03125 171.625 " fill-opacity="1" fill-rule="nonzero"/><path fill="#4a555f" d="M 193.539062 195.34375 L 148.726562 169.363281 L 150.957031 165.511719 L 193.539062 190.199219 L 236.125 165.511719 L 238.351562 169.363281 L 193.539062 195.34375 " fill-opacity="1" fill-rule="nonzero"/><path fill="#4a555f" d="M 195.902344 243.191406 L 191.453125 243.191406 L 191.453125 192.773438 L 195.902344 192.773438 L 195.902344 243.191406 " fill-opacity="1" fill-rule="nonzero"/><path fill="#4a555f" d="M 195.761719 152.878906 L 191.316406 152.878906 L 191.316406 148.421875 L 195.761719 148.421875 Z M 195.761719 161.78125 L 191.316406 161.78125 L 191.316406 157.328125 L 195.761719 157.328125 Z M 195.761719 170.683594 L 191.316406 170.683594 L 191.316406 166.234375 L 195.761719 166.234375 L 195.761719 170.683594 " fill-opacity="1" fill-rule="nonzero"/><path fill="#ffd452" d="M 157.316406 343.207031 L 157.257812 301.230469 L 193.554688 280.1875 L 229.902344 301.121094 L 229.953125 343.101562 L 193.664062 364.136719 L 157.316406 343.207031 " fill-opacity="1" fill-rule="nonzero"/><path fill="#f58e6f" d="M 230.03125 301.148438 L 193.675781 322.296875 L 193.664062 364.136719 L 229.957031 343.101562 L 230.03125 301.148438 " fill-opacity="1" fill-rule="nonzero"/><g clip-path="url(#b19192a004)"><path fill="#4a555f" d="M 152.132812 346.214844 L 193.671875 370.136719 L 235.152344 346.089844 L 235.085938 298.117188 L 193.542969 274.1875 L 152.066406 298.238281 Z M 193.683594 375.28125 L 147.6875 348.789062 L 147.617188 295.671875 L 193.535156 269.050781 L 239.53125 295.539062 L 239.601562 348.652344 L 193.683594 375.28125 " fill-opacity="1" fill-rule="nonzero"/></g><path fill="#4a555f" d="M 193.539062 324.867188 L 148.726562 298.886719 L 150.957031 295.03125 L 193.539062 319.726562 L 236.125 295.03125 L 238.351562 298.886719 L 193.539062 324.867188 " fill-opacity="1" fill-rule="nonzero"/><path fill="#4a555f" d="M 195.902344 372.707031 L 191.453125 372.707031 L 191.453125 322.296875 L 195.902344 322.296875 L 195.902344 372.707031 " fill-opacity="1" fill-rule="nonzero"/><path fill="#4a555f" d="M 195.765625 282.90625 L 191.320312 282.90625 L 191.320312 278.457031 L 195.765625 278.457031 Z M 195.765625 291.8125 L 191.320312 291.8125 L 191.320312 287.359375 L 195.765625 287.359375 Z M 195.765625 300.714844 L 191.320312 300.714844 L 191.320312 296.265625 L 195.765625 296.265625 L 195.765625 300.714844 " fill-opacity="1" fill-rule="nonzero"/><path fill="#ffd452" d="M 274.230469 151.132812 L 274.171875 109.15625 L 310.464844 88.109375 L 346.808594 109.046875 L 346.871094 151.023438 L 310.574219 172.066406 L 274.230469 151.132812 " fill-opacity="1" fill-rule="nonzero"/><path fill="#f58e6f" d="M 346.816406 109.070312 L 310.460938 130.21875 L 310.449219 172.066406 L 346.742188 151.023438 L 346.816406 109.070312 " fill-opacity="1" fill-rule="nonzero"/><g clip-path="url(#b2c28d7a2e)"><path fill="#4a555f" d="M 269.042969 154.136719 L 310.582031 178.058594 L 352.0625 154.019531 L 351.996094 106.039062 L 310.457031 82.113281 L 268.976562 106.164062 Z M 310.59375 183.203125 L 264.597656 156.710938 L 264.527344 103.601562 L 310.449219 76.976562 L 356.4375 103.460938 L 356.511719 156.574219 L 310.59375 183.203125 " fill-opacity="1" fill-rule="nonzero"/></g><path fill="#4a555f" d="M 310.449219 132.789062 L 265.636719 106.808594 L 267.867188 102.960938 L 310.449219 127.648438 L 353.035156 102.960938 L 355.265625 106.808594 L 310.449219 132.789062 " fill-opacity="1" fill-rule="nonzero"/><path fill="#4a555f" d="M 312.8125 180.636719 L 308.363281 180.636719 L 308.363281 130.21875 L 312.8125 130.21875 L 312.8125 180.636719 " fill-opacity="1" fill-rule="nonzero"/><path fill="#ffd452" d="M 274.230469 278.863281 L 274.171875 236.894531 L 310.464844 215.847656 L 346.808594 236.78125 L 346.871094 278.761719 L 310.574219 299.804688 L 274.230469 278.863281 " fill-opacity="1" fill-rule="nonzero"/><path fill="#f58e6f" d="M 346.816406 236.867188 L 310.460938 258.007812 L 310.449219 299.855469 L 346.742188 278.8125 L 346.816406 236.867188 " fill-opacity="1" fill-rule="nonzero"/><g clip-path="url(#c5d9b4b7e8)"><path fill="#4a555f" d="M 269.042969 281.875 L 310.582031 305.796875 L 352.0625 281.75 L 351.996094 233.777344 L 310.457031 209.847656 L 268.976562 233.898438 Z M 310.59375 310.941406 L 264.597656 284.453125 L 264.527344 231.339844 L 310.449219 204.710938 L 356.4375 231.199219 L 356.511719 284.3125 L 310.59375 310.941406 " fill-opacity="1" fill-rule="nonzero"/></g><path fill="#4a555f" d="M 310.449219 260.527344 L 265.636719 234.546875 L 267.867188 230.691406 L 310.449219 255.386719 L 353.035156 230.691406 L 355.265625 234.546875 L 310.449219 260.527344 " fill-opacity="1" fill-rule="nonzero"/><path fill="#4a555f" d="M 312.8125 308.367188 L 308.363281 308.367188 L 308.363281 257.957031 L 312.8125 257.957031 L 312.8125 308.367188 " fill-opacity="1" fill-rule="nonzero"/><path fill="#4a555f" d="M 312.8125 219.273438 L 308.363281 219.273438 L 308.363281 214.820312 L 312.8125 214.820312 Z M 312.8125 228.175781 L 308.363281 228.175781 L 308.363281 223.726562 L 312.8125 223.726562 Z M 312.8125 237.078125 L 308.363281 237.078125 L 308.363281 232.625 L 312.8125 232.625 L 312.8125 237.078125 " fill-opacity="1" fill-rule="nonzero"/><path fill="#4a555f" d="M 282.109375 275.726562 L 279.941406 271.839844 L 283.824219 269.667969 L 285.996094 273.554688 Z M 274.347656 280.070312 L 272.175781 276.1875 L 276.058594 274.019531 L 278.230469 277.898438 L 274.347656 280.070312 " fill-opacity="1" fill-rule="nonzero"/><path fill="#ffd452" d="M 39.5625 278.863281 L 39.507812 236.894531 L 75.796875 215.847656 L 112.144531 236.78125 L 112.203125 278.761719 L 75.910156 299.804688 L 39.5625 278.863281 " fill-opacity="1" fill-rule="nonzero"/><path fill="#f58e6f" d="M 112.179688 236.867188 L 75.824219 258.007812 L 75.8125 299.855469 L 112.101562 278.8125 L 112.179688 236.867188 " fill-opacity="1" fill-rule="nonzero"/><g clip-path="url(#1d3b46eaa4)"><path fill="#4a555f" d="M 34.378906 281.875 L 75.921875 305.796875 L 117.394531 281.75 L 117.332031 233.777344 L 75.789062 209.847656 L 34.3125 233.898438 Z M 75.925781 310.941406 L 29.933594 284.453125 L 29.859375 231.339844 L 75.78125 204.710938 L 121.777344 231.199219 L 121.847656 284.3125 L 75.925781 310.941406 " fill-opacity="1" fill-rule="nonzero"/></g><path fill="#4a555f" d="M 75.785156 260.527344 L 30.972656 234.546875 L 33.203125 230.691406 L 75.785156 255.386719 L 118.371094 230.691406 L 120.601562 234.546875 L 75.785156 260.527344 " fill-opacity="1" fill-rule="nonzero"/><path fill="#4a555f" d="M 78.144531 308.371094 L 73.699219 308.371094 L 73.699219 257.957031 L 78.144531 257.957031 L 78.144531 308.371094 " fill-opacity="1" fill-rule="nonzero"/><path fill="#4a555f" d="M 78.144531 219.273438 L 73.699219 219.273438 L 73.699219 214.820312 L 78.144531 214.820312 Z M 78.144531 228.175781 L 73.699219 228.175781 L 73.699219 223.726562 L 78.144531 223.726562 Z M 78.144531 237.078125 L 73.699219 237.078125 L 73.699219 232.625 L 78.144531 232.625 L 78.144531 237.078125 " fill-opacity="1" fill-rule="nonzero"/><path fill="#4a555f" d="M 105.027344 275.726562 L 101.140625 273.554688 L 103.316406 269.667969 L 107.195312 271.839844 Z M 112.789062 280.070312 L 108.90625 277.898438 L 111.078125 274.019531 L 114.960938 276.1875 L 112.789062 280.070312 " fill-opacity="1" fill-rule="nonzero"/></svg>